<?xml version="1.0" encoding="UTF-8" standalone="no"?>
<!-- Generator: Gravit.io -->
<svg xmlns="http://www.w3.org/2000/svg" xmlns:xlink="http://www.w3.org/1999/xlink" style="isolation:isolate" viewBox="860 430 60 60" width="60pt" height="60pt"><defs><clipPath id="_clipPath_SvaQ7XQWmDnf1zecNhNeFCMQCsHVw4hY"><rect x="860" y="430" width="60" height="60"/></clipPath></defs><g clip-path="url(#_clipPath_SvaQ7XQWmDnf1zecNhNeFCMQCsHVw4hY)"><path d=" M 900 440 L 900 432 C 900 430.896 899.104 430 898 430 L 882 430 L 882 430 C 880.896 430 880 430.896 880 432 L 880 448 C 880 449.104 880.896 450 882 450 L 890 450 L 898 450 C 899.104 450 900 450.896 900 452 L 900 468 C 900 469.104 899.104 470 898 470 L 862 470 C 860.896 470 860 470.896 860 472 L 860 488 C 860 489.104 860.896 490 862 490 L 918 490 C 919.104 490 920 489.104 920 488 L 920 470 L 920 470 L 920 470 L 920 452 C 920 450.896 919.104 450 918 450 L 910 450 L 902 450 L 902 450 C 900.896 450 900 449.104 900 448 L 900 448 L 900 440 L 900 440 Z " fill="rgb(90,99,156)"/></g></svg>